<svg width="106" height="31" viewBox="0 0 106 31" fill="none" xmlns="http://www.w3.org/2000/svg">
<path d="M15.5221 29.2691C15.5221 30.0332 14.9031 30.6593 14.1443 30.5892C12.644 30.4506 11.1703 30.0862 9.77342 29.506C7.95085 28.749 6.29482 27.6394 4.89988 26.2406C3.50495 24.8418 2.39843 23.1811 1.64349 21.3535C0.888559 19.5259 0.5 17.567 0.5 15.5888C0.5 13.6106 0.888559 11.6517 1.64349 9.82408C2.39843 7.99644 3.50495 6.33581 4.89988 4.937C6.29482 3.53818 7.95085 2.42858 9.77342 1.67155C11.1703 1.09135 12.644 0.726953 14.1443 0.588373C14.9031 0.518287 15.5221 1.14433 15.5221 1.90847V8.38228C11.5531 8.38229 8.33559 11.6088 8.33559 15.5888C8.33559 19.5688 11.553 22.7953 15.522 22.7954V8.3823C19.491 8.3823 22.7086 11.6088 22.7086 15.5889C22.7086 19.5689 19.4911 22.7953 15.5221 22.7954V29.2691Z" fill="white"/>
<path d="M15.506 22.7913L15.5059 8.38574C19.4838 8.38574 22.7086 11.6105 22.7086 15.5885C22.7086 19.5664 19.4839 22.7912 15.506 22.7913Z" fill="white"/>
<path d="M97.8146 15.0144C97.8146 15.3841 98.0171 15.6658 98.4221 15.8595C98.8446 16.0356 99.5049 16.2205 100.403 16.4141C101.424 16.6254 102.278 16.8631 102.965 17.1272C103.651 17.3913 104.241 17.8139 104.734 18.3949C105.245 18.9583 105.5 19.7242 105.5 20.6926C105.5 21.5553 105.236 22.3036 104.708 22.9374C104.197 23.5713 103.51 24.0555 102.648 24.39C101.785 24.7069 100.843 24.8654 99.8218 24.8654C98.4309 24.8654 97.2336 24.6013 96.23 24.0731C95.244 23.5449 94.5133 22.7878 94.038 21.8018L96.7318 20.4021C97.2072 21.6169 98.2372 22.2244 99.8218 22.2244C100.508 22.2244 101.098 22.0923 101.591 21.8282C102.084 21.5641 102.331 21.1856 102.331 20.6926C102.331 20.27 102.102 19.9619 101.644 19.7682C101.204 19.5569 100.482 19.3281 99.4785 19.0816C98.4397 18.8351 97.5945 18.5886 96.9431 18.3421C96.2916 18.0956 95.7282 17.717 95.2528 17.2064C94.7774 16.6782 94.5398 15.9828 94.5398 15.12C94.5398 14.2749 94.7774 13.5442 95.2528 12.928C95.7282 12.2941 96.3709 11.81 97.1808 11.4754C97.9907 11.1409 98.8798 10.9736 99.8482 10.9736C100.993 10.9736 102.014 11.2113 102.912 11.6867C103.827 12.1621 104.532 12.84 105.025 13.7203L102.357 15.0672C101.899 14.0812 101.063 13.5882 99.8482 13.5882C99.232 13.5882 98.739 13.7203 98.3692 13.9844C97.9995 14.2309 97.8146 14.5742 97.8146 15.0144Z" fill="white"/>
<path d="M87.3176 10.9736C88.5853 10.9736 89.7209 11.2906 90.7245 11.9244C91.7457 12.5406 92.538 13.377 93.1014 14.4334C93.6648 15.4898 93.9465 16.6606 93.9465 17.9459C93.9465 18.3685 93.9113 18.7558 93.8409 19.108H83.6466C83.9107 20.0411 84.3772 20.7718 85.0463 21.3C85.7154 21.8106 86.5693 22.0659 87.6081 22.0659C88.2419 22.0659 88.8494 21.9251 89.4304 21.6433C90.029 21.3616 90.478 21.0007 90.7773 20.5605L93.2863 22.0395C92.67 22.955 91.8689 23.6593 90.883 24.1523C89.9146 24.6277 88.7965 24.8654 87.5289 24.8654C86.1203 24.8654 84.8702 24.5661 83.7786 23.9674C82.687 23.3688 81.8419 22.5413 81.2432 21.4849C80.6622 20.4285 80.3717 19.24 80.3717 17.9195C80.3717 16.6166 80.6622 15.437 81.2432 14.3805C81.8419 13.3241 82.6694 12.4966 83.7258 11.898C84.7822 11.2818 85.9795 10.9736 87.3176 10.9736ZM90.883 16.5462C90.7421 15.7011 90.3459 15.0408 89.6945 14.5654C89.0606 14.0724 88.2595 13.8259 87.2912 13.8259C86.6221 13.8259 86.0059 13.9492 85.4425 14.1957C84.8966 14.4422 84.4565 14.7767 84.1219 15.1993C83.7874 15.6218 83.6114 16.0708 83.5937 16.5462H90.883Z" fill="white"/>
<path d="M78.6341 20.7984C78.6341 21.0802 78.7045 21.2826 78.8453 21.4059C78.9862 21.5291 79.2063 21.5908 79.5056 21.5908C79.7345 21.5908 80.0074 21.5643 80.3243 21.5115V24.5223C79.6729 24.6279 79.0654 24.6807 78.502 24.6807C77.4808 24.6807 76.6973 24.4166 76.1515 23.8884C75.6233 23.3426 75.3592 22.3831 75.3592 21.0097V6.03516H78.6341V20.7984Z" fill="white"/>
<path d="M74.5786 21.9607C73.9272 22.8587 73.1084 23.5717 72.1225 24.0999C71.1365 24.6281 70.0713 24.8922 68.9268 24.8922C67.6767 24.8922 66.5147 24.5841 65.4407 23.9679C64.3843 23.334 63.5392 22.4889 62.9053 21.4325C62.2891 20.3585 61.981 19.1964 61.981 17.9464C61.981 16.6963 62.2891 15.543 62.9053 14.4866C63.5392 13.4126 64.3843 12.5675 65.4407 11.9513C66.5147 11.3174 67.6767 11.0005 68.9268 11.0005C70.0537 11.0005 71.1101 11.2646 72.0961 11.7928C73.082 12.3034 73.9008 12.9989 74.5522 13.8792L71.8584 15.7015C71.0308 14.7331 70.0537 14.2489 68.9268 14.2489C68.2578 14.2489 67.6415 14.4162 67.0781 14.7507C66.5147 15.0853 66.0657 15.5342 65.7312 16.0977C65.3967 16.6611 65.2294 17.2773 65.2294 17.9464C65.2294 18.6154 65.3967 19.2317 65.7312 19.7951C66.0657 20.3585 66.5147 20.8075 67.0781 21.142C67.6415 21.4589 68.2578 21.6174 68.9268 21.6174C70.0537 21.6174 71.0308 21.1332 71.8584 20.1648L74.5786 21.9607Z" fill="white"/>
<path d="M62.104 11.0527L61.8663 14.1427C61.7606 14.1075 61.5758 14.0899 61.3116 14.0899C60.22 14.0899 59.3133 14.4068 58.5914 15.0407C57.8871 15.6745 57.535 16.5372 57.535 17.6289V24.5219H54.2601V11.3168H57.535V13.5353C57.8343 12.831 58.3449 12.2412 59.0668 11.7658C59.7887 11.2904 60.6602 11.0527 61.6814 11.0527H62.104Z" fill="white"/>
<path d="M50.43 9.1248C49.8138 9.1248 49.3296 8.95753 48.9775 8.623C48.6253 8.28848 48.4493 7.8307 48.4493 7.24968C48.4493 6.65105 48.6253 6.18447 48.9775 5.84994C49.3296 5.51541 49.8138 5.34814 50.43 5.34814C51.0463 5.34814 51.5305 5.51541 51.8826 5.84994C52.2347 6.18447 52.4108 6.65105 52.4108 7.24968C52.4108 7.81309 52.2259 8.27087 51.8562 8.623C51.5041 8.95753 51.0287 9.1248 50.43 9.1248ZM48.7662 24.5219V11.3168H52.0411V24.5219H48.7662Z" fill="white"/>
<path d="M29.7144 15.3314C29.7144 13.606 30.1369 12.0126 30.982 10.5512C31.8448 9.08983 33.0068 7.93659 34.4682 7.09146C35.9295 6.22873 37.523 5.79736 39.2484 5.79736C41.0091 5.79736 42.6377 6.25514 44.1343 7.17069C45.6309 8.06864 46.7841 9.2659 47.594 10.7625L44.5569 12.3735C44.0287 11.4403 43.2892 10.692 42.3384 10.1286C41.3877 9.54761 40.3577 9.2571 39.2484 9.2571C38.1568 9.2571 37.1356 9.53 36.1848 10.0758C35.2517 10.6216 34.5122 11.3611 33.9664 12.2943C33.4206 13.2274 33.1477 14.2398 33.1477 15.3314C33.1477 16.4231 33.4206 17.4354 33.9664 18.3686C34.5122 19.3018 35.2517 20.0413 36.1848 20.5871C37.1356 21.1329 38.1568 21.4058 39.2484 21.4058C40.3929 21.4058 41.4317 21.1153 42.3648 20.5342C43.3156 19.9532 44.0551 19.1785 44.5833 18.2101L47.6205 19.874C46.8105 21.3882 45.6573 22.603 44.1607 23.5186C42.6641 24.4165 41.0267 24.8655 39.2484 24.8655C37.523 24.8655 35.9295 24.4429 34.4682 23.5978C33.0068 22.7351 31.8448 21.573 30.982 20.1117C30.1369 18.6503 29.7144 17.0569 29.7144 15.3314Z" fill="white"/>
<circle cx="50.319" cy="6.58549" r="2.40092" fill="white"/>
</svg>
