<svg width="51" height="69" viewBox="0 0 51 69" fill="none" xmlns="http://www.w3.org/2000/svg">
<path d="M34.285 51.8364V65.4659C34.285 67.2124 32.8752 68.6393 31.1401 68.4795C27.7156 68.1656 24.3539 67.3323 21.1634 66.0081C17.0027 64.2787 13.2243 61.7503 10.0395 58.5541C6.85471 55.3636 4.332 51.5738 2.60833 47.4016C0.884663 43.2295 0 38.7605 0 34.2458C0 29.7312 0.884663 25.2622 2.60833 21.0901C4.332 16.9179 6.85471 13.1281 10.0395 9.93759C13.2243 6.74709 17.0027 4.21296 21.1634 2.48359C24.3539 1.15945 27.7213 0.331859 31.1458 0.0122389C32.8752 -0.147571 34.2907 1.2793 34.2907 3.0258V17.8025C25.2329 17.8025 17.8873 25.1652 17.8873 34.2516C17.8873 43.3379 25.2272 50.6949 34.285 50.7006" fill="#38318B"/>
<path d="M34.3344 50.8272L34.334 17.7372C43.4715 17.7372 50.879 25.1447 50.879 34.2822C50.879 43.4196 43.4717 50.827 34.3344 50.8272Z" fill="#DF6552"/>
</svg>
