<svg width="114" height="34" viewBox="0 0 114 34" fill="none" xmlns="http://www.w3.org/2000/svg">
<path d="M16.2854 25.3557V31.8297C16.2854 32.6593 15.6157 33.3371 14.7916 33.2611C13.1649 33.112 11.5681 32.7162 10.0526 32.0873C8.07626 31.2658 6.28154 30.0648 4.76876 28.5466C3.25599 27.0311 2.0577 25.231 1.23896 23.2492C0.420215 21.2674 0 19.1446 0 17.0002C0 14.8557 0.420215 12.733 1.23896 10.7512C2.0577 8.76938 3.25599 6.96924 4.76876 5.45375C6.28154 3.93827 8.07626 2.73456 10.0526 1.9131C11.5681 1.28414 13.1676 0.891032 14.7943 0.739212C15.6157 0.663302 16.2881 1.34107 16.2881 2.17065V9.1896C11.9856 9.1896 8.49648 12.6869 8.49648 17.0029C8.49648 21.3189 11.9829 24.8135 16.2854 24.8162" fill="#38318B"/>
<path d="M16.3083 24.876L16.3081 9.1582C20.6484 9.1582 24.167 12.6767 24.167 17.0171C24.167 21.3574 20.6485 24.8759 16.3083 24.876Z" fill="#DF6552"/>
<path d="M105.684 16.3415C105.684 16.7416 105.903 17.0465 106.341 17.2561C106.798 17.4466 107.513 17.6467 108.484 17.8562C109.589 18.0849 110.514 18.3421 111.257 18.6279C112 18.9137 112.638 19.3709 113.171 19.9997C113.724 20.6093 114 21.4381 114 22.486C114 23.4196 113.714 24.2294 113.143 24.9153C112.59 25.6012 111.847 26.1251 110.914 26.4871C109.98 26.8301 108.961 27.0015 107.856 27.0015C106.351 27.0015 105.055 26.7157 103.969 26.1442C102.902 25.5726 102.111 24.7533 101.597 23.6864L104.512 22.1717C105.026 23.4863 106.141 24.1436 107.856 24.1436C108.599 24.1436 109.237 24.0007 109.77 23.7149C110.304 23.4292 110.571 23.0195 110.571 22.486C110.571 22.0288 110.323 21.6954 109.828 21.4858C109.351 21.2571 108.57 21.0095 107.484 20.7427C106.36 20.476 105.446 20.2092 104.741 19.9425C104.036 19.6758 103.426 19.2661 102.911 18.7136C102.397 18.142 102.14 17.3894 102.14 16.4559C102.14 15.5413 102.397 14.7506 102.911 14.0838C103.426 13.3979 104.121 12.874 104.998 12.5119C105.874 12.1499 106.836 11.9689 107.884 11.9689C109.123 11.9689 110.228 12.2262 111.199 12.7406C112.19 13.255 112.952 13.9885 113.486 14.9412L110.599 16.3987C110.104 15.3317 109.199 14.7983 107.884 14.7983C107.217 14.7983 106.684 14.9412 106.284 15.227C105.884 15.4937 105.684 15.8652 105.684 16.3415Z" fill="#38318B"/>
<path d="M94.3244 11.9689C95.6962 11.9689 96.9251 12.3119 98.0111 12.9978C99.1162 13.6646 99.9735 14.5696 100.583 15.7128C101.193 16.856 101.498 18.123 101.498 19.5138C101.498 19.9711 101.46 20.3902 101.383 20.7713H90.3519C90.6377 21.7811 91.1426 22.5718 91.8666 23.1434C92.5906 23.6959 93.5147 23.9722 94.6388 23.9722C95.3247 23.9722 95.982 23.8197 96.6108 23.5149C97.2585 23.21 97.7444 22.8195 98.0683 22.3431L100.783 23.9436C100.116 24.9343 99.2495 25.6964 98.1826 26.2299C97.1347 26.7443 95.9249 27.0015 94.5531 27.0015C93.0288 27.0015 91.6761 26.6776 90.4948 26.0298C89.3136 25.3821 88.399 24.4866 87.7512 23.3434C87.1225 22.2003 86.8081 20.9142 86.8081 19.4852C86.8081 18.0753 87.1225 16.7988 87.7512 15.6556C88.399 14.5125 89.2945 13.617 90.4377 12.9692C91.5808 12.3024 92.8764 11.9689 94.3244 11.9689ZM98.1826 17.9991C98.0302 17.0846 97.6015 16.3701 96.8965 15.8557C96.2106 15.3222 95.3437 15.0555 94.2958 15.0555C93.5718 15.0555 92.905 15.1889 92.2953 15.4556C91.7047 15.7223 91.2284 16.0843 90.8664 16.5416C90.5044 16.9989 90.3138 17.4847 90.2948 17.9991H98.1826Z" fill="#38318B"/>
<path d="M84.9278 22.6005C84.9278 22.9053 85.0041 23.1244 85.1565 23.2578C85.3089 23.3912 85.5471 23.4578 85.871 23.4578C86.1186 23.4578 86.414 23.4293 86.7569 23.3721V26.6301C86.052 26.7444 85.3946 26.8016 84.785 26.8016C83.6799 26.8016 82.832 26.5158 82.2414 25.9442C81.6698 25.3536 81.384 24.3152 81.384 22.8291V6.62477H84.9278V22.6005Z" fill="#38318B"/>
<path d="M80.5393 23.8583C79.8343 24.8299 78.9484 25.6016 77.8814 26.1732C76.8145 26.7447 75.6618 27.0305 74.4234 27.0305C73.0706 27.0305 71.8131 26.6971 70.6509 26.0303C69.5078 25.3444 68.5932 24.4298 67.9073 23.2867C67.2405 22.1245 66.9071 20.867 66.9071 19.5142C66.9071 18.1615 67.2405 16.9135 67.9073 15.7704C68.5932 14.6082 69.5078 13.6936 70.6509 13.0268C71.8131 12.3409 73.0706 11.9979 74.4234 11.9979C75.6427 11.9979 76.7859 12.2837 77.8528 12.8553C78.9198 13.4078 79.8057 14.1604 80.5107 15.1131L77.5956 17.085C76.7001 16.0371 75.6427 15.5132 74.4234 15.5132C73.6993 15.5132 73.0325 15.6942 72.4228 16.0562C71.8131 16.4182 71.3273 16.904 70.9653 17.5137C70.6033 18.1234 70.4223 18.7902 70.4223 19.5142C70.4223 20.2382 70.6033 20.9051 70.9653 21.5148C71.3273 22.1245 71.8131 22.6103 72.4228 22.9723C73.0325 23.3153 73.6993 23.4867 74.4234 23.4867C75.6427 23.4867 76.7001 22.9628 77.5956 21.9149L80.5393 23.8583Z" fill="#38318B"/>
<path d="M67.04 12.0547L66.7828 15.3984C66.6685 15.3603 66.4684 15.3413 66.1826 15.3413C65.0014 15.3413 64.0202 15.6842 63.239 16.3701C62.4769 17.056 62.0958 17.9896 62.0958 19.1709V26.63H58.552V12.3405H62.0958V14.7411C62.4197 13.979 62.9723 13.3408 63.7534 12.8263C64.5346 12.3119 65.4777 12.0547 66.5828 12.0547H67.04Z" fill="#38318B"/>
<path d="M31.9907 16.6845C31.9907 14.8173 32.448 13.0931 33.3625 11.5117C34.2961 9.9303 35.5536 8.68235 37.135 7.76782C38.7163 6.83424 40.4406 6.36744 42.3078 6.36744C44.213 6.36744 45.9754 6.86282 47.5949 7.85356C49.2144 8.82524 50.4623 10.1208 51.3387 11.7403L48.0522 13.4836C47.4806 12.4738 46.6804 11.6641 45.6515 11.0544C44.6227 10.4257 43.5081 10.1113 42.3078 10.1113C41.1265 10.1113 40.0214 10.4066 38.9926 10.9973C37.9828 11.5879 37.1826 12.3881 36.592 13.3979C36.0013 14.4077 35.706 15.5032 35.706 16.6845C35.706 17.8658 36.0013 18.9613 36.592 19.9711C37.1826 20.9809 37.9828 21.7811 38.9926 22.3717C40.0214 22.9624 41.1265 23.2577 42.3078 23.2577C43.5462 23.2577 44.6703 22.9433 45.6801 22.3146C46.7089 21.6858 47.5091 20.8475 48.0807 19.7996L51.3673 21.6001C50.4909 23.2386 49.2429 24.5532 47.6235 25.544C46.004 26.5157 44.2321 27.0015 42.3078 27.0015C40.4406 27.0015 38.7163 26.5443 37.135 25.6297C35.5536 24.6961 34.2961 23.4387 33.3625 21.8573C32.448 20.2759 31.9907 18.5516 31.9907 16.6845Z" fill="#38318B"/>
<path d="M52.6071 26.6298V12.3403H56.1509V26.6298H52.6071Z" fill="#38318B"/>
<path d="M56.9445 7.3979C56.9445 8.83279 55.7813 9.996 54.3464 9.996C52.9115 9.996 51.7483 8.83279 51.7483 7.3979C51.7483 5.96301 52.9115 4.7998 54.3464 4.7998C55.7813 4.7998 56.9445 5.96301 56.9445 7.3979Z" fill="#38318B"/>
</svg>
